<svg width="36" height="36" viewBox="0 0 36 36" fill="none" xmlns="http://www.w3.org/2000/svg">
<g clip-path="url(#clip0_6_1014)">
<path fill-rule="evenodd" clip-rule="evenodd" d="M18 36C27.9411 36 36 27.9411 36 18C36 8.05887 27.9411 0 18 0C8.05887 0 0 8.05887 0 18C0 27.9411 8.05887 36 18 36Z" stroke="#FFCA58" stroke-opacity="0.2" stroke-width="1.35"/>
<path d="M7.82219 4.38212C3.68045 7.48258 1 12.4283 1 18C1 27.3888 8.61116 35 18 35C27.3888 35 35 27.3888 35 18C35 8.61116 27.3888 1 18 1" stroke="#FFCA58" stroke-width="1.37838"/>
<path d="M12.0104 12.624C10.2184 12.624 8.85844 13.92 8.85844 15.648V16.656C8.85844 18.384 10.2344 19.68 11.9624 19.68C12.6824 19.68 13.5944 19.36 14.0904 18.688V19.2C14.0904 21.696 13.3064 23.152 10.9704 23.152C10.6184 23.152 10.3944 23.12 10.1864 23.088C10.1064 23.072 10.0264 23.056 9.96244 23.056C9.67444 23.056 9.46644 23.248 9.46644 23.536C9.46644 23.792 9.62644 23.984 9.86644 24.048C10.2344 24.128 10.6344 24.16 10.9704 24.16C14.2184 24.16 15.1784 21.792 15.1784 19.168V15.648C15.1784 13.92 13.8184 12.624 12.0104 12.624ZM12.0104 13.632C13.1944 13.632 14.0904 14.496 14.0904 15.616V16.688C14.0904 17.824 13.1944 18.672 12.0104 18.672C10.8424 18.672 9.94644 17.824 9.94644 16.688V15.616C9.94644 14.496 10.8424 13.632 12.0104 13.632ZM18.2206 22.592C17.8046 22.592 17.4366 22.944 17.4366 23.376C17.4366 23.808 17.8046 24.16 18.2206 24.16C18.6526 24.16 19.0046 23.792 19.0046 23.376C19.0046 22.944 18.6526 22.592 18.2206 22.592ZM23.9259 12.624C23.7179 12.624 23.5259 12.736 23.4459 12.944L20.7579 20.48C20.7259 20.56 20.7099 20.64 20.7099 20.704C20.7099 21.072 20.9819 21.328 21.3499 21.328H24.9979V23.632C24.9979 23.936 25.2219 24.16 25.5259 24.16C25.8299 24.16 26.0539 23.936 26.0539 23.632V21.328H27.3019C27.6059 21.328 27.8139 21.104 27.8139 20.816C27.8139 20.512 27.6059 20.288 27.3019 20.288H26.0539V18C26.0539 17.68 25.8299 17.472 25.5259 17.472C25.2219 17.472 24.9979 17.68 24.9979 18V20.288H21.9579L24.4059 13.376C24.4379 13.296 24.4539 13.216 24.4539 13.136C24.4539 12.832 24.2299 12.624 23.9259 12.624Z" fill="#101010"/>
</g>
<defs>
<clipPath id="clip0_6_1014">
<rect width="36" height="36" fill="white"/>
</clipPath>
</defs>
</svg>
