<svg width="50" height="51" viewBox="0 0 50 51" fill="none" xmlns="http://www.w3.org/2000/svg">
<path fill-rule="evenodd" clip-rule="evenodd" d="M25 49.5C38.2548 49.5 49 38.7548 49 25.5C49 12.2452 38.2548 1.5 25 1.5C11.7452 1.5 1 12.2452 1 25.5C1 38.7548 11.7452 49.5 25 49.5Z" stroke="#FFCA58" stroke-opacity="0.2" stroke-width="2"/>
<path d="M11.8287 7.87686C6.46882 11.8892 3 18.2895 3 25.5C3 37.6503 12.8497 47.5 25 47.5C37.1503 47.5 47 37.6503 47 25.5C47 13.3497 37.1503 3.5 25 3.5" stroke="#FFCA58" stroke-width="2" stroke-linecap="round"/>
<path d="M18.306 18.28C16.066 18.28 14.366 19.9 14.366 22.06V23.32C14.366 25.48 16.086 27.1 18.246 27.1C19.146 27.1 20.286 26.7 20.906 25.86V26.5C20.906 29.62 19.926 31.44 17.006 31.44C16.566 31.44 16.286 31.4 16.026 31.36C15.926 31.34 15.826 31.32 15.746 31.32C15.386 31.32 15.126 31.56 15.126 31.92C15.126 32.24 15.326 32.48 15.626 32.56C16.086 32.66 16.586 32.7 17.006 32.7C21.066 32.7 22.266 29.74 22.266 26.46V22.06C22.266 19.9 20.566 18.28 18.306 18.28ZM18.306 19.54C19.786 19.54 20.906 20.62 20.906 22.02V23.36C20.906 24.78 19.786 25.84 18.306 25.84C16.846 25.84 15.726 24.78 15.726 23.36V22.02C15.726 20.62 16.846 19.54 18.306 19.54ZM26.0687 30.74C25.5487 30.74 25.0887 31.18 25.0887 31.72C25.0887 32.26 25.5487 32.7 26.0687 32.7C26.6087 32.7 27.0487 32.24 27.0487 31.72C27.0487 31.18 26.6087 30.74 26.0687 30.74ZM29.5204 18.48C29.1204 18.48 28.8604 18.76 28.8604 19.12C28.8604 19.5 29.1204 19.78 29.5204 19.78H35.4604L30.7604 31.7C30.7004 31.84 30.6804 31.94 30.6804 32.02C30.6804 32.46 30.9604 32.7 31.3604 32.7C31.6604 32.7 31.8804 32.56 32.0204 32.2L37.0004 19.64C37.0404 19.52 37.0604 19.42 37.0604 19.3C37.0604 18.82 36.7004 18.48 36.2404 18.48H29.5204Z" fill="#FFCA58"/>
</svg>
