<svg width="24" height="24" viewBox="0 0 24 24" fill="none" xmlns="http://www.w3.org/2000/svg">
<path fill-rule="evenodd" clip-rule="evenodd" d="M11.4286 2.0039C11.5184 2 11.612 2 11.7017 2C15.9505 2 19.4072 5.45159 19.415 9.69012C19.415 10.181 19.3682 10.6718 19.2746 11.151C19.2629 11.225 19.2473 11.3029 19.2239 11.3964C19.1068 11.9185 18.9312 12.4327 18.705 12.9197C17.9169 14.7779 16.1807 17.6685 12.4157 20.789C12.2167 20.9526 11.967 21.0422 11.7095 21.0422C11.452 21.0422 11.2023 20.9526 11.0034 20.789C7.2345 17.6646 5.49833 14.7779 4.70632 12.9041C4.48393 12.4288 4.30837 11.9185 4.19132 11.3925C4.1484 11.225 4.1367 11.1354 4.1367 11.1354C4.00015 10.4264 3.96503 9.68233 4.03526 8.94215C4.402 5.12046 7.58174 2.13635 11.4286 2.0039ZM8.67026 9.77972C8.67026 11.4471 10.028 12.8067 11.7017 12.8067C13.3755 12.8067 14.7332 11.4471 14.7332 9.77972C14.7332 8.11236 13.3716 6.75276 11.7017 6.75276C10.0319 6.75276 8.67026 8.11236 8.67026 9.77972Z" fill="#FFCA58"/>
</svg>
