<svg width="26" height="26" viewBox="0 0 26 26" fill="none" xmlns="http://www.w3.org/2000/svg">
<path fill-rule="evenodd" clip-rule="evenodd" d="M10.9548 21.5096C5.1372 21.5096 0.400024 16.7776 0.400024 10.9548C0.400024 5.13201 5.1372 0.400024 10.9548 0.400024C16.7724 0.400024 21.5096 5.13201 21.5096 10.9548C21.5096 13.6402 20.5019 16.0867 18.8501 17.9515L25.5819 24.6781C25.8312 24.9274 25.8312 25.3273 25.5819 25.5767C25.4572 25.7013 25.2962 25.7637 25.13 25.7637C24.9637 25.7637 24.8027 25.7013 24.6781 25.5767L17.9515 18.8501C16.0867 20.5019 13.635 21.5096 10.9548 21.5096ZM10.9548 20.237C16.0711 20.237 20.237 16.0711 20.237 10.9548C20.237 5.83323 16.0711 1.67262 10.9548 1.67262C5.83843 1.67262 1.67262 5.83843 1.67262 10.9548C1.67262 16.0711 5.83843 20.237 10.9548 20.237Z" fill="black"/>
<mask id="mask0_6_5210" style="mask-type:alpha" maskUnits="userSpaceOnUse" x="0" y="0" width="26" height="26">
<path fill-rule="evenodd" clip-rule="evenodd" d="M10.9548 21.5096C5.1372 21.5096 0.400024 16.7776 0.400024 10.9548C0.400024 5.13201 5.1372 0.400024 10.9548 0.400024C16.7724 0.400024 21.5096 5.13201 21.5096 10.9548C21.5096 13.6402 20.5019 16.0867 18.8501 17.9515L25.5819 24.6781C25.8312 24.9274 25.8312 25.3273 25.5819 25.5767C25.4572 25.7013 25.2962 25.7637 25.13 25.7637C24.9637 25.7637 24.8027 25.7013 24.6781 25.5767L17.9515 18.8501C16.0867 20.5019 13.635 21.5096 10.9548 21.5096ZM10.9548 20.237C16.0711 20.237 20.237 16.0711 20.237 10.9548C20.237 5.83323 16.0711 1.67262 10.9548 1.67262C5.83843 1.67262 1.67262 5.83843 1.67262 10.9548C1.67262 16.0711 5.83843 20.237 10.9548 20.237Z" fill="white"/>
</mask>
<g mask="url(#mask0_6_5210)">
<rect x="-3" y="-3" width="32" height="32" fill="black"/>
</g>
</svg>
